<svg width="119" height="27" viewBox="0 0 119 27" fill="none" xmlns="http://www.w3.org/2000/svg">
<rect y="1" width="118" height="25" fill="#0A2633"/>
<path d="M41.4542 11.575C41.1842 11.055 40.8092 10.665 40.3292 10.405C39.8492 10.135 39.2942 10 38.6642 10C37.9742 10 37.3592 10.155 36.8192 10.465C36.2792 10.775 35.8542 11.215 35.5442 11.785C35.2442 12.355 35.0942 13.015 35.0942 13.765C35.0942 14.515 35.2442 15.18 35.5442 15.76C35.8542 16.33 36.2792 16.77 36.8192 17.08C37.3592 17.39 37.9742 17.545 38.6642 17.545C39.5942 17.545 40.3492 17.285 40.9292 16.765C41.5092 16.245 41.8642 15.54 41.9942 14.65H38.0792V13.285H43.8242V14.62C43.7142 15.43 43.4242 16.175 42.9542 16.855C42.4942 17.535 41.8892 18.08 41.1392 18.49C40.3992 18.89 39.5742 19.09 38.6642 19.09C37.6842 19.09 36.7892 18.865 35.9792 18.415C35.1692 17.955 34.5242 17.32 34.0442 16.51C33.5742 15.7 33.3392 14.785 33.3392 13.765C33.3392 12.745 33.5742 11.83 34.0442 11.02C34.5242 10.21 35.1692 9.58 35.9792 9.13C36.7992 8.67 37.6942 8.44 38.6642 8.44C39.7742 8.44 40.7592 8.715 41.6192 9.265C42.4892 9.805 43.1192 10.575 43.5092 11.575H41.4542ZM46.7157 14.35C46.9157 14.0433 47.1657 13.8033 47.4657 13.63C47.7657 13.45 48.0991 13.36 48.4657 13.36V15.17H47.9957C47.5691 15.17 47.2491 15.2633 47.0357 15.45C46.8224 15.63 46.7157 15.95 46.7157 16.41V19H45.0057V13.42H46.7157V14.35ZM53.7581 19.117C53.0648 19.117 52.4408 18.9653 51.8861 18.662C51.3314 18.35 50.8938 17.9123 50.5731 17.349C50.2611 16.7857 50.1051 16.1357 50.1051 15.399C50.1051 14.6623 50.2654 14.0123 50.5861 13.449C50.9154 12.8857 51.3618 12.4523 51.9251 12.149C52.4884 11.837 53.1168 11.681 53.8101 11.681C54.5034 11.681 55.1318 11.837 55.6951 12.149C56.2584 12.4523 56.7004 12.8857 57.0211 13.449C57.3504 14.0123 57.5151 14.6623 57.5151 15.399C57.5151 16.1357 57.3461 16.7857 57.0081 17.349C56.6788 17.9123 56.2281 18.35 55.6561 18.662C55.0928 18.9653 54.4601 19.117 53.7581 19.117ZM53.7581 17.531C54.0874 17.531 54.3951 17.453 54.6811 17.297C54.9758 17.1323 55.2098 16.8897 55.3831 16.569C55.5564 16.2483 55.6431 15.8583 55.6431 15.399C55.6431 14.7143 55.4611 14.19 55.0971 13.826C54.7418 13.4533 54.3041 13.267 53.7841 13.267C53.2641 13.267 52.8264 13.4533 52.4711 13.826C52.1244 14.19 51.9511 14.7143 51.9511 15.399C51.9511 16.0837 52.1201 16.6123 52.4581 16.985C52.8048 17.349 53.2381 17.531 53.7581 17.531ZM70.5081 10.69L68.0781 19H65.8131L64.2981 13.195L62.7831 19H60.5031L58.0581 10.69H60.1881L61.6581 17.02L63.2481 10.69H65.4681L67.0281 17.005L68.4981 10.69H70.5081Z" fill="#39931A"/>
<path d="M78.5144 11.53C78.5144 12.43 78.2194 13.155 77.6294 13.705C77.0394 14.255 76.1544 14.53 74.9744 14.53H72.8594V19H71.8094V8.515H74.9744C76.1444 8.515 77.0244 8.79 77.6144 9.34C78.2144 9.89 78.5144 10.62 78.5144 11.53ZM74.9744 13.63C76.6144 13.63 77.4344 12.93 77.4344 11.53C77.4344 10.83 77.2394 10.3 76.8494 9.94C76.4594 9.58 75.8344 9.4 74.9744 9.4H72.8594V13.63H74.9744ZM79.7002 15.438C79.7002 14.71 79.8432 14.073 80.1292 13.527C80.4238 12.9723 80.8268 12.5477 81.3382 12.253C81.8582 11.9497 82.4432 11.798 83.0932 11.798C83.7692 11.798 84.3498 11.954 84.8352 12.266C85.3292 12.578 85.6845 12.9767 85.9012 13.462V11.902H86.8112V19H85.9012V17.427C85.6758 17.9123 85.3162 18.3153 84.8222 18.636C84.3368 18.948 83.7562 19.104 83.0802 19.104C82.4388 19.104 81.8582 18.9523 81.3382 18.649C80.8268 18.3457 80.4238 17.9167 80.1292 17.362C79.8432 16.8073 79.7002 16.166 79.7002 15.438ZM85.9012 15.451C85.9012 14.879 85.7842 14.3763 85.5502 13.943C85.3162 13.5097 84.9955 13.176 84.5882 12.942C84.1895 12.708 83.7475 12.591 83.2622 12.591C82.7595 12.591 82.3088 12.7037 81.9102 12.929C81.5115 13.1543 81.1952 13.4837 80.9612 13.917C80.7358 14.3417 80.6232 14.8487 80.6232 15.438C80.6232 16.0187 80.7358 16.53 80.9612 16.972C81.1952 17.4053 81.5115 17.739 81.9102 17.973C82.3088 18.1983 82.7595 18.311 83.2622 18.311C83.7475 18.311 84.1895 18.194 84.5882 17.96C84.9955 17.726 85.3162 17.3923 85.5502 16.959C85.7842 16.5257 85.9012 16.023 85.9012 15.451ZM89.7986 13.163C89.998 12.721 90.3013 12.3787 90.7086 12.136C91.1246 11.8933 91.6316 11.772 92.2296 11.772V12.721H91.9826C91.324 12.721 90.7953 12.8987 90.3966 13.254C89.998 13.6093 89.7986 14.203 89.7986 15.035V19H88.8886V11.902H89.7986V13.163ZM94.7816 12.669V17.076C94.7816 17.5093 94.8639 17.8083 95.0286 17.973C95.1933 18.1377 95.4836 18.22 95.8996 18.22H96.7316V19H95.7566C95.1153 19 94.6386 18.8527 94.3266 18.558C94.0146 18.2547 93.8586 17.7607 93.8586 17.076V12.669H92.8706V11.902H93.8586V10.121H94.7816V11.902H96.7316V12.669H94.7816ZM101.56 11.772C102.41 11.772 103.103 12.0363 103.64 12.565C104.178 13.085 104.446 13.8433 104.446 14.84V19H103.549V14.944C103.549 14.1727 103.354 13.5833 102.964 13.176C102.583 12.7687 102.059 12.565 101.391 12.565C100.707 12.565 100.161 12.7817 99.7534 13.215C99.346 13.6483 99.1424 14.2853 99.1424 15.126V19H98.2324V11.902H99.1424V13.111C99.3677 12.6777 99.6927 12.3483 100.117 12.123C100.542 11.889 101.023 11.772 101.56 11.772ZM112.881 15.087C112.881 15.399 112.872 15.6373 112.855 15.802H106.966C106.992 16.3393 107.122 16.7987 107.356 17.18C107.59 17.5613 107.898 17.8517 108.279 18.051C108.66 18.2417 109.076 18.337 109.527 18.337C110.116 18.337 110.61 18.194 111.009 17.908C111.416 17.622 111.685 17.2363 111.815 16.751H112.777C112.604 17.4443 112.231 18.012 111.659 18.454C111.096 18.8873 110.385 19.104 109.527 19.104C108.86 19.104 108.262 18.9567 107.733 18.662C107.204 18.3587 106.788 17.934 106.485 17.388C106.19 16.8333 106.043 16.1877 106.043 15.451C106.043 14.7143 106.19 14.0687 106.485 13.514C106.78 12.9593 107.191 12.5347 107.72 12.24C108.249 11.9453 108.851 11.798 109.527 11.798C110.203 11.798 110.792 11.9453 111.295 12.24C111.806 12.5347 112.196 12.9333 112.465 13.436C112.742 13.93 112.881 14.4803 112.881 15.087ZM111.958 15.061C111.967 14.5323 111.858 14.0817 111.633 13.709C111.416 13.3363 111.117 13.0547 110.736 12.864C110.355 12.6733 109.939 12.578 109.488 12.578C108.812 12.578 108.236 12.7947 107.759 13.228C107.282 13.6613 107.018 14.2723 106.966 15.061H111.958ZM115.456 13.163C115.655 12.721 115.959 12.3787 116.366 12.136C116.782 11.8933 117.289 11.772 117.887 11.772V12.721H117.64C116.981 12.721 116.453 12.8987 116.054 13.254C115.655 13.6093 115.456 14.203 115.456 15.035V19H114.546V11.902H115.456V13.163Z" fill="white"/>
<path d="M10 13.5L30 2V25L10 13.5Z" fill="white"/>
<path d="M19 12.8197L-1.30793e-06 24L-1.30793e-06 2L19 12.8197Z" fill="#39931A"/>
<path d="M0 2L2 3L0 4V2Z" fill="#0A2633"/>
<path d="M0 23L1 23.8L0 25V23Z" fill="#0A2633"/>
<rect y="12" width="19" height="1" fill="#0A2633"/>
<path d="M18 12L30.0019 0.998259L31.0019 1.99825L19 13L18 12Z" fill="#0A2633"/>
<path d="M19 12L31 25L30 26L18 13L19 12Z" fill="#0A2633"/>
</svg>
